<?xml version="1.0" encoding="utf-8"?>

<!DOCTYPE svg PUBLIC "-//W3C//DTD SVG 1.1//EN" "http://www.w3.org/Graphics/SVG/1.1/DTD/svg11.dtd">
<!-- Uploaded to: SVG Repo, www.svgrepo.com, Generator: SVG Repo Mixer Tools -->
<svg height="800px" width="800px" version="1.1" id="_x32_" xmlns="http://www.w3.org/2000/svg" xmlns:xlink="http://www.w3.org/1999/xlink" 
	 viewBox="0 0 512 512"  xml:space="preserve">
<style type="text/css">
	.st0{fill:#FFFFFF;}
</style>
<g>
	<polygon class="st0" points="382.274,268.611 345.166,290.046 345.21,258.348 328.593,258.33 328.531,299.639 271.911,332.335 
		269.979,333.456 269.979,265.831 305.728,245.136 297.406,230.744 269.979,246.628 269.979,203.774 253.361,203.774 
		253.361,246.628 225.933,230.744 217.612,245.136 253.361,265.831 253.361,333.456 194.808,299.639 194.747,258.33 178.13,258.348 
		178.165,290.037 141.065,268.611 132.743,283.013 169.852,304.431 142.389,320.245 150.693,334.647 186.486,314.04 245.04,347.849 
		186.496,381.657 150.693,361.042 142.389,375.444 169.869,391.259 132.743,412.686 141.065,427.078 178.165,405.651 
		178.13,437.342 194.747,437.359 194.79,396.05 253.361,362.242 253.361,364.466 253.361,429.859 217.612,450.553 225.933,464.937 
		253.361,449.062 253.361,491.914 269.979,491.914 269.979,449.062 297.406,464.937 305.728,450.553 269.979,429.859 
		269.979,364.466 269.979,362.242 271.911,363.354 328.531,396.05 328.593,437.359 345.21,437.342 345.174,405.651 382.274,427.078 
		390.596,412.686 353.47,391.259 380.951,375.444 372.647,361.042 336.844,381.657 280.216,348.961 278.292,347.849 
		280.216,346.728 336.853,314.04 372.647,334.647 380.951,320.245 353.479,304.439 390.596,283.013 	"/>
	<path class="st0" d="M481.475,186.531c-15.858-15.868-36.915-26.642-60.336-29.643c-2.048-36.747-17.808-69.946-42.227-94.337
		c-26.192-26.219-62.524-42.474-102.518-42.465c-37.462-0.009-71.728,14.261-97.435,37.612
		c-22.106,20.058-37.982,46.921-44.389,77.27c-6.204-1.032-12.558-1.606-19.026-1.606c-31.867-0.017-60.829,12.946-81.7,33.834
		C12.955,188.057-0.009,217.03,0,248.896c-0.009,31.858,12.955,60.838,33.843,81.7c20.359,20.377,48.439,33.11,79.389,33.72v-27.18
		c-23.501-0.617-44.646-10.263-60.16-25.768c-16.017-16.036-25.875-38.027-25.883-62.471c0.008-24.445,9.866-46.446,25.883-62.48
		c16.026-16.008,38.035-25.875,62.471-25.875c9.125,0,17.879,1.377,26.13,3.928l15.849,4.898l1.694-16.494
		c3.044-29.652,17.076-56.038,38.017-75.046c20.96-19.009,48.634-30.552,79.159-30.56c32.564,0.008,61.933,13.166,83.298,34.505
		c21.338,21.356,34.496,50.725,34.504,83.307c0,1.147-0.052,2.489-0.106,4.05l-0.52,14.623l14.349-0.548
		c21.25,0.035,40.374,8.614,54.335,22.556c13.96,13.979,22.547,33.146,22.556,54.467c-0.009,21.312-8.596,40.48-22.556,54.458
		c-12.672,12.655-29.625,20.827-48.554,22.266v27.18c26.386-1.482,50.266-12.69,67.775-30.216
		c18.84-18.823,30.534-44.954,30.525-73.688C512.009,231.484,500.316,205.345,481.475,186.531z"/>
</g>
</svg>